<svg width="217" height="15" viewBox="0 0 217 15" fill="none" xmlns="http://www.w3.org/2000/svg">
<path d="M2.10748 5.35515C2.31237 5.35677 2.51726 5.3958 2.72216 5.47223C2.92705 5.54866 3.11405 5.67549 3.28317 5.85274C3.45228 6.02836 3.58806 6.26821 3.69051 6.5723C3.79295 6.87638 3.84418 7.25771 3.84418 7.71627C3.84418 8.1602 3.8019 8.55453 3.71734 8.89927C3.63441 9.24238 3.51407 9.53183 3.35634 9.76762C3.20023 10.0034 3.00998 10.1823 2.78557 10.3042C2.5628 10.4262 2.31075 10.4872 2.02943 10.4872C1.74974 10.4872 1.50013 10.4319 1.2806 10.3213C1.0627 10.2091 0.88383 10.0538 0.743984 9.85543C0.605764 9.65542 0.517141 9.42369 0.478114 9.16026H1.07327C1.12693 9.38955 1.23345 9.57899 1.3928 9.72859C1.55379 9.87657 1.766 9.95056 2.02943 9.95056C2.41482 9.95056 2.7189 9.78225 2.94168 9.44565C3.16609 9.10904 3.27829 8.6334 3.27829 8.01873H3.23926C3.1482 8.15532 3.04006 8.27322 2.91485 8.37241C2.78964 8.4716 2.65061 8.54803 2.49775 8.60169C2.3449 8.65535 2.18228 8.68218 2.00992 8.68218C1.72372 8.68218 1.4611 8.61145 1.22206 8.46998C0.984649 8.32688 0.794394 8.13093 0.651295 7.88213C0.509823 7.63171 0.439087 7.34552 0.439087 7.02354C0.439087 6.71783 0.507384 6.43814 0.643978 6.18447C0.782198 5.92917 0.975706 5.7259 1.2245 5.57467C1.47492 5.42345 1.76925 5.35027 2.10748 5.35515ZM2.10748 5.89177C1.90259 5.89177 1.71803 5.94299 1.55379 6.04544C1.39118 6.14625 1.2619 6.28285 1.16596 6.45522C1.07165 6.62596 1.02449 6.8154 1.02449 7.02354C1.02449 7.23169 1.07002 7.42113 1.16108 7.59187C1.25377 7.76099 1.3798 7.89596 1.53916 7.99678C1.70014 8.09597 1.88308 8.14557 2.08797 8.14557C2.24245 8.14557 2.38636 8.11548 2.5197 8.05532C2.65305 7.99352 2.76931 7.90978 2.86851 7.80408C2.96933 7.69676 3.04819 7.57561 3.10511 7.44064C3.16202 7.30405 3.19048 7.16176 3.19048 7.01379C3.19048 6.81865 3.14332 6.63572 3.04901 6.46497C2.95632 6.29423 2.82785 6.15601 2.66362 6.05031C2.501 5.94462 2.31563 5.89177 2.10748 5.89177Z" fill="black"/>
<path d="M5.23268 9.77981C5.11234 9.77981 5.00909 9.73672 4.9229 9.65054C4.83672 9.56435 4.79363 9.46109 4.79363 9.34076C4.79363 9.22043 4.83672 9.11717 4.9229 9.03099C5.00909 8.9448 5.11234 8.90171 5.23268 8.90171C5.35301 8.90171 5.45627 8.9448 5.54245 9.03099C5.62864 9.11717 5.67173 9.22043 5.67173 9.34076C5.67173 9.42044 5.6514 9.49362 5.61075 9.56029C5.57172 9.62696 5.51887 9.68062 5.4522 9.72127C5.38716 9.7603 5.31398 9.77981 5.23268 9.77981ZM5.23268 7.25283C5.11234 7.25283 5.00909 7.20973 4.9229 7.12355C4.83672 7.03737 4.79363 6.93411 4.79363 6.81378C4.79363 6.69344 4.83672 6.59018 4.9229 6.504C5.00909 6.41782 5.11234 6.37472 5.23268 6.37472C5.35301 6.37472 5.45627 6.41782 5.54245 6.504C5.62864 6.59018 5.67173 6.69344 5.67173 6.81378C5.67173 6.89346 5.6514 6.96663 5.61075 7.0333C5.57172 7.09997 5.51887 7.15363 5.4522 7.19429C5.38716 7.23331 5.31398 7.25283 5.23268 7.25283Z" fill="black"/>
<path d="M6.57788 9.39442V8.89683L8.77314 5.42345H9.13414V6.19422H8.89022L7.23158 8.81878V8.8578H10.1879V9.39442H6.57788ZM8.92925 10.4189V5.42345H9.50489V10.4189H8.92925Z" fill="black"/>
<path d="M12.7911 5.42345V10.4189H12.1862V6.05763H12.1569L10.9373 6.86744V6.25276L12.1862 5.42345H12.7911Z" fill="black"/>
<path d="M212.386 5.61518H203.022V10.2344H212.386V5.61518Z" fill="#1A1A1A"/>
<path d="M215.975 11.528H202.146C201.94 11.528 201.78 11.362 201.78 11.1617V4.67646C201.78 4.47612 201.946 4.31012 202.146 4.31012H215.975C216.176 4.31012 216.342 4.47612 216.342 4.67646V11.1617C216.342 11.3677 216.176 11.528 215.975 11.528ZM202.507 10.7953H215.603V5.04279H202.507V10.7953Z" fill="#1A1A1A"/>
<path d="M217 6.36502H216.096V9.47311H217V6.36502Z" fill="#1A1A1A"/>
<path d="M190.893 9.46166C190.893 10.6064 189.966 11.5337 188.821 11.5337C187.676 11.5337 186.749 10.6064 186.749 9.46166C186.749 8.31688 187.676 7.3896 188.821 7.3896C189.966 7.3896 190.893 8.31688 190.893 9.46166Z" fill="#1A1A1A"/>
<path d="M193.085 5.84414C192.914 5.84414 192.742 5.77545 192.61 5.6438C191.609 4.63066 190.258 4.06972 188.81 4.06972C187.361 4.06972 186.028 4.62494 185.02 5.63235C184.763 5.88993 184.339 5.88993 184.082 5.63235C183.824 5.37477 183.824 4.9512 184.082 4.69362C185.341 3.43436 187.018 2.74176 188.81 2.74176C190.601 2.74176 192.307 3.44008 193.56 4.71652C193.818 4.97982 193.812 5.39767 193.555 5.65525C193.423 5.78117 193.257 5.84414 193.085 5.84414Z" fill="#1A1A1A"/>
<path d="M191.488 7.45256C191.322 7.45256 191.151 7.3896 191.025 7.26367C190.596 6.84582 189.869 6.35357 188.827 6.35357C188.014 6.35357 187.236 6.66838 186.646 7.2465C186.383 7.50408 185.965 7.49835 185.707 7.23505C185.45 6.97175 185.455 6.54818 185.719 6.29633C187.402 4.65928 190.246 4.65356 191.952 6.3135C192.215 6.57108 192.221 6.98892 191.964 7.25222C191.832 7.3896 191.66 7.45256 191.488 7.45256Z" fill="#1A1A1A"/>
<path d="M173.767 2.89059H170.619V11.528H173.767V2.89059Z" fill="#1A1A1A"/>
<path d="M165.943 6.51956H162.794V11.5337H165.943V6.51956Z" fill="#1A1A1A"/>
<path d="M166.692 4.61349H169.841V11.5337H166.692V4.61349Z" fill="#1A1A1A"/>
</svg>
